# xmcd CD database file
#
# Track frame offsets:
#	150
#	22445
#	45709
#	70690
#	92201
#	108688
#	133744
#	155784
#	177088
#	197917
#	221107
#	247940
#
# Disc length: 3558 seconds
#
# Revision: 3
# Processed by: cddbd v1.5.2PL0 Copyright (c) Steve Scherf et al.
# Submitted via: jetAudio 5
#
DISCID=b80de40c
DTITLE=Various Artist - The Most Relaxing New Age Music In The Universe (Disc2
DTITLE=)
DYEAR=2005
DGENRE=New Age
TTITLE0=Kitaro - The Wind
TTITLE1=Hideo Shimazu - Slipping into April
TTITLE2=Manabu Ohishi - Glittering Green
TTITLE3=Takedake with John Kaizan Neptune - Korea Idea
TTITLE4=Keiichi Uko - Sheep Cloud and Wind
TTITLE5=Makoto Hirahara - Crescent
TTITLE6=Kitaro - Evening Sun
TTITLE7=Toshiyuke Watanabe - Children's Dream
TTITLE8=Mari Fujiwara - Walking in the Air
TTITLE9=Kitiaro - Taklamakan Desert
TTITLE10=Takedake with Johyn Kaizon Neptune - Java
TTITLE11=Mari Fujiwara - Icarus
EXTD=YEAR: 2005
EXTT0=
EXTT1=
EXTT2=
EXTT3=
EXTT4=
EXTT5=
EXTT6=
EXTT7=
EXTT8=
EXTT9=
EXTT10=
EXTT11=
PLAYORDER=
